<?xml version="1.0" encoding="utf-8" standalone="no"?>
<!DOCTYPE svg PUBLIC "-//W3C//DTD SVG 1.1//EN"
  "http://www.w3.org/Graphics/SVG/1.1/DTD/svg11.dtd">
<svg xmlns:xlink="http://www.w3.org/1999/xlink" width="252.283465pt" height="201.826772pt" viewBox="0 0 252.283465 201.826772" xmlns="http://www.w3.org/2000/svg" version="1.1">
 <metadata>
  <rdf:RDF xmlns:dc="http://purl.org/dc/elements/1.1/" xmlns:cc="http://creativecommons.org/ns#" xmlns:rdf="http://www.w3.org/1999/02/22-rdf-syntax-ns#">
   <cc:Work>
    <dc:type rdf:resource="http://purl.org/dc/dcmitype/StillImage"/>
    <dc:date>2026-07-27T13:42:15.729170</dc:date>
    <dc:format>image/svg+xml</dc:format>
    <dc:creator>
     <cc:Agent>
      <dc:title>Matplotlib v3.10.6, https://matplotlib.org/</dc:title>
     </cc:Agent>
    </dc:creator>
   </cc:Work>
  </rdf:RDF>
 </metadata>
 <defs>
  <style type="text/css">*{stroke-linejoin: round; stroke-linecap: butt}</style>
 </defs>
 <g id="figure_1">
  <g id="patch_1">
   <path d="M 0 201.826772 
L 252.283465 201.826772 
L 252.283465 0 
L 0 0 
z
" style="fill: #ffffff"/>
  </g>
  <g id="axes_1">
   <g id="patch_2">
    <path d="M 39.62 167.786772 
L 243.643465 167.786772 
L 243.643465 8.64 
L 39.62 8.64 
z
" style="fill: #ffffff"/>
   </g>
   <g id="matplotlib.axis_1">
    <g id="xtick_1">
     <g id="line2d_1">
      <defs>
       <path id="me07d306d38" d="M 0 0 
L 0 3.5 
" style="stroke: #000000; stroke-width: 0.8"/>
      </defs>
      <g>
       <use xlink:href="#me07d306d38" x="48.893794" y="167.786772" style="stroke: #000000; stroke-width: 0.8"/>
      </g>
     </g>
     <g id="text_1">
      <!-- 0.0 -->
      <g transform="translate(42.532544 180.865522) scale(0.08 -0.08)">
       <defs>
        <path id="DejaVuSans-30" d="M 2034 4250 
Q 1547 4250 1301 3770 
Q 1056 3291 1056 2328 
Q 1056 1369 1301 889 
Q 1547 409 2034 409 
Q 2525 409 2770 889 
Q 3016 1369 3016 2328 
Q 3016 3291 2770 3770 
Q 2525 4250 2034 4250 
z
M 2034 4750 
Q 2819 4750 3233 4129 
Q 3647 3509 3647 2328 
Q 3647 1150 3233 529 
Q 2819 -91 2034 -91 
Q 1250 -91 836 529 
Q 422 1150 422 2328 
Q 422 3509 836 4129 
Q 1250 4750 2034 4750 
z
" transform="scale(0.015625)"/>
        <path id="DejaVuSans-2e" d="M 684 794 
L 1344 794 
L 1344 0 
L 684 0 
L 684 794 
z
" transform="scale(0.015625)"/>
       </defs>
       <use xlink:href="#DejaVuSans-30"/>
       <use xlink:href="#DejaVuSans-2e" transform="translate(63.623047 0)"/>
       <use xlink:href="#DejaVuSans-30" transform="translate(95.410156 0)"/>
      </g>
     </g>
    </g>
    <g id="xtick_2">
     <g id="line2d_2">
      <g>
       <use xlink:href="#me07d306d38" x="85.988969" y="167.786772" style="stroke: #000000; stroke-width: 0.8"/>
      </g>
     </g>
     <g id="text_2">
      <!-- 0.2 -->
      <g transform="translate(79.627719 180.865522) scale(0.08 -0.08)">
       <defs>
        <path id="DejaVuSans-32" d="M 1228 531 
L 3431 531 
L 3431 0 
L 469 0 
L 469 531 
Q 828 903 1448 1529 
Q 2069 2156 2228 2338 
Q 2531 2678 2651 2914 
Q 2772 3150 2772 3378 
Q 2772 3750 2511 3984 
Q 2250 4219 1831 4219 
Q 1534 4219 1204 4116 
Q 875 4013 500 3803 
L 500 4441 
Q 881 4594 1212 4672 
Q 1544 4750 1819 4750 
Q 2544 4750 2975 4387 
Q 3406 4025 3406 3419 
Q 3406 3131 3298 2873 
Q 3191 2616 2906 2266 
Q 2828 2175 2409 1742 
Q 1991 1309 1228 531 
z
" transform="scale(0.015625)"/>
       </defs>
       <use xlink:href="#DejaVuSans-30"/>
       <use xlink:href="#DejaVuSans-2e" transform="translate(63.623047 0)"/>
       <use xlink:href="#DejaVuSans-32" transform="translate(95.410156 0)"/>
      </g>
     </g>
    </g>
    <g id="xtick_3">
     <g id="line2d_3">
      <g>
       <use xlink:href="#me07d306d38" x="123.084145" y="167.786772" style="stroke: #000000; stroke-width: 0.8"/>
      </g>
     </g>
     <g id="text_3">
      <!-- 0.4 -->
      <g transform="translate(116.722895 180.865522) scale(0.08 -0.08)">
       <defs>
        <path id="DejaVuSans-34" d="M 2419 4116 
L 825 1625 
L 2419 1625 
L 2419 4116 
z
M 2253 4666 
L 3047 4666 
L 3047 1625 
L 3713 1625 
L 3713 1100 
L 3047 1100 
L 3047 0 
L 2419 0 
L 2419 1100 
L 313 1100 
L 313 1709 
L 2253 4666 
z
" transform="scale(0.015625)"/>
       </defs>
       <use xlink:href="#DejaVuSans-30"/>
       <use xlink:href="#DejaVuSans-2e" transform="translate(63.623047 0)"/>
       <use xlink:href="#DejaVuSans-34" transform="translate(95.410156 0)"/>
      </g>
     </g>
    </g>
    <g id="xtick_4">
     <g id="line2d_4">
      <g>
       <use xlink:href="#me07d306d38" x="160.17932" y="167.786772" style="stroke: #000000; stroke-width: 0.8"/>
      </g>
     </g>
     <g id="text_4">
      <!-- 0.6 -->
      <g transform="translate(153.81807 180.865522) scale(0.08 -0.08)">
       <defs>
        <path id="DejaVuSans-36" d="M 2113 2584 
Q 1688 2584 1439 2293 
Q 1191 2003 1191 1497 
Q 1191 994 1439 701 
Q 1688 409 2113 409 
Q 2538 409 2786 701 
Q 3034 994 3034 1497 
Q 3034 2003 2786 2293 
Q 2538 2584 2113 2584 
z
M 3366 4563 
L 3366 3988 
Q 3128 4100 2886 4159 
Q 2644 4219 2406 4219 
Q 1781 4219 1451 3797 
Q 1122 3375 1075 2522 
Q 1259 2794 1537 2939 
Q 1816 3084 2150 3084 
Q 2853 3084 3261 2657 
Q 3669 2231 3669 1497 
Q 3669 778 3244 343 
Q 2819 -91 2113 -91 
Q 1303 -91 875 529 
Q 447 1150 447 2328 
Q 447 3434 972 4092 
Q 1497 4750 2381 4750 
Q 2619 4750 2861 4703 
Q 3103 4656 3366 4563 
z
" transform="scale(0.015625)"/>
       </defs>
       <use xlink:href="#DejaVuSans-30"/>
       <use xlink:href="#DejaVuSans-2e" transform="translate(63.623047 0)"/>
       <use xlink:href="#DejaVuSans-36" transform="translate(95.410156 0)"/>
      </g>
     </g>
    </g>
    <g id="xtick_5">
     <g id="line2d_5">
      <g>
       <use xlink:href="#me07d306d38" x="197.274495" y="167.786772" style="stroke: #000000; stroke-width: 0.8"/>
      </g>
     </g>
     <g id="text_5">
      <!-- 0.8 -->
      <g transform="translate(190.913245 180.865522) scale(0.08 -0.08)">
       <defs>
        <path id="DejaVuSans-38" d="M 2034 2216 
Q 1584 2216 1326 1975 
Q 1069 1734 1069 1313 
Q 1069 891 1326 650 
Q 1584 409 2034 409 
Q 2484 409 2743 651 
Q 3003 894 3003 1313 
Q 3003 1734 2745 1975 
Q 2488 2216 2034 2216 
z
M 1403 2484 
Q 997 2584 770 2862 
Q 544 3141 544 3541 
Q 544 4100 942 4425 
Q 1341 4750 2034 4750 
Q 2731 4750 3128 4425 
Q 3525 4100 3525 3541 
Q 3525 3141 3298 2862 
Q 3072 2584 2669 2484 
Q 3125 2378 3379 2068 
Q 3634 1759 3634 1313 
Q 3634 634 3220 271 
Q 2806 -91 2034 -91 
Q 1263 -91 848 271 
Q 434 634 434 1313 
Q 434 1759 690 2068 
Q 947 2378 1403 2484 
z
M 1172 3481 
Q 1172 3119 1398 2916 
Q 1625 2713 2034 2713 
Q 2441 2713 2670 2916 
Q 2900 3119 2900 3481 
Q 2900 3844 2670 4047 
Q 2441 4250 2034 4250 
Q 1625 4250 1398 4047 
Q 1172 3844 1172 3481 
z
" transform="scale(0.015625)"/>
       </defs>
       <use xlink:href="#DejaVuSans-30"/>
       <use xlink:href="#DejaVuSans-2e" transform="translate(63.623047 0)"/>
       <use xlink:href="#DejaVuSans-38" transform="translate(95.410156 0)"/>
      </g>
     </g>
    </g>
    <g id="xtick_6">
     <g id="line2d_6">
      <g>
       <use xlink:href="#me07d306d38" x="234.369671" y="167.786772" style="stroke: #000000; stroke-width: 0.8"/>
      </g>
     </g>
     <g id="text_6">
      <!-- 1.0 -->
      <g transform="translate(228.008421 180.865522) scale(0.08 -0.08)">
       <defs>
        <path id="DejaVuSans-31" d="M 794 531 
L 1825 531 
L 1825 4091 
L 703 3866 
L 703 4441 
L 1819 4666 
L 2450 4666 
L 2450 531 
L 3481 531 
L 3481 0 
L 794 0 
L 794 531 
z
" transform="scale(0.015625)"/>
       </defs>
       <use xlink:href="#DejaVuSans-31"/>
       <use xlink:href="#DejaVuSans-2e" transform="translate(63.623047 0)"/>
       <use xlink:href="#DejaVuSans-30" transform="translate(95.410156 0)"/>
      </g>
     </g>
    </g>
    <g id="text_7">
     <!-- Test Sensitivity -->
     <g transform="translate(111.659857 192.608022) scale(0.08 -0.08)">
      <defs>
       <path id="DejaVuSans-54" d="M -19 4666 
L 3928 4666 
L 3928 4134 
L 2272 4134 
L 2272 0 
L 1638 0 
L 1638 4134 
L -19 4134 
L -19 4666 
z
" transform="scale(0.015625)"/>
       <path id="DejaVuSans-65" d="M 3597 1894 
L 3597 1613 
L 953 1613 
Q 991 1019 1311 708 
Q 1631 397 2203 397 
Q 2534 397 2845 478 
Q 3156 559 3463 722 
L 3463 178 
Q 3153 47 2828 -22 
Q 2503 -91 2169 -91 
Q 1331 -91 842 396 
Q 353 884 353 1716 
Q 353 2575 817 3079 
Q 1281 3584 2069 3584 
Q 2775 3584 3186 3129 
Q 3597 2675 3597 1894 
z
M 3022 2063 
Q 3016 2534 2758 2815 
Q 2500 3097 2075 3097 
Q 1594 3097 1305 2825 
Q 1016 2553 972 2059 
L 3022 2063 
z
" transform="scale(0.015625)"/>
       <path id="DejaVuSans-73" d="M 2834 3397 
L 2834 2853 
Q 2591 2978 2328 3040 
Q 2066 3103 1784 3103 
Q 1356 3103 1142 2972 
Q 928 2841 928 2578 
Q 928 2378 1081 2264 
Q 1234 2150 1697 2047 
L 1894 2003 
Q 2506 1872 2764 1633 
Q 3022 1394 3022 966 
Q 3022 478 2636 193 
Q 2250 -91 1575 -91 
Q 1294 -91 989 -36 
Q 684 19 347 128 
L 347 722 
Q 666 556 975 473 
Q 1284 391 1588 391 
Q 1994 391 2212 530 
Q 2431 669 2431 922 
Q 2431 1156 2273 1281 
Q 2116 1406 1581 1522 
L 1381 1569 
Q 847 1681 609 1914 
Q 372 2147 372 2553 
Q 372 3047 722 3315 
Q 1072 3584 1716 3584 
Q 2034 3584 2315 3537 
Q 2597 3491 2834 3397 
z
" transform="scale(0.015625)"/>
       <path id="DejaVuSans-74" d="M 1172 4494 
L 1172 3500 
L 2356 3500 
L 2356 3053 
L 1172 3053 
L 1172 1153 
Q 1172 725 1289 603 
Q 1406 481 1766 481 
L 2356 481 
L 2356 0 
L 1766 0 
Q 1100 0 847 248 
Q 594 497 594 1153 
L 594 3053 
L 172 3053 
L 172 3500 
L 594 3500 
L 594 4494 
L 1172 4494 
z
" transform="scale(0.015625)"/>
       <path id="DejaVuSans-20" transform="scale(0.015625)"/>
       <path id="DejaVuSans-53" d="M 3425 4513 
L 3425 3897 
Q 3066 4069 2747 4153 
Q 2428 4238 2131 4238 
Q 1616 4238 1336 4038 
Q 1056 3838 1056 3469 
Q 1056 3159 1242 3001 
Q 1428 2844 1947 2747 
L 2328 2669 
Q 3034 2534 3370 2195 
Q 3706 1856 3706 1288 
Q 3706 609 3251 259 
Q 2797 -91 1919 -91 
Q 1588 -91 1214 -16 
Q 841 59 441 206 
L 441 856 
Q 825 641 1194 531 
Q 1563 422 1919 422 
Q 2459 422 2753 634 
Q 3047 847 3047 1241 
Q 3047 1584 2836 1778 
Q 2625 1972 2144 2069 
L 1759 2144 
Q 1053 2284 737 2584 
Q 422 2884 422 3419 
Q 422 4038 858 4394 
Q 1294 4750 2059 4750 
Q 2388 4750 2728 4690 
Q 3069 4631 3425 4513 
z
" transform="scale(0.015625)"/>
       <path id="DejaVuSans-6e" d="M 3513 2113 
L 3513 0 
L 2938 0 
L 2938 2094 
Q 2938 2591 2744 2837 
Q 2550 3084 2163 3084 
Q 1697 3084 1428 2787 
Q 1159 2491 1159 1978 
L 1159 0 
L 581 0 
L 581 3500 
L 1159 3500 
L 1159 2956 
Q 1366 3272 1645 3428 
Q 1925 3584 2291 3584 
Q 2894 3584 3203 3211 
Q 3513 2838 3513 2113 
z
" transform="scale(0.015625)"/>
       <path id="DejaVuSans-69" d="M 603 3500 
L 1178 3500 
L 1178 0 
L 603 0 
L 603 3500 
z
M 603 4863 
L 1178 4863 
L 1178 4134 
L 603 4134 
L 603 4863 
z
" transform="scale(0.015625)"/>
       <path id="DejaVuSans-76" d="M 191 3500 
L 800 3500 
L 1894 563 
L 2988 3500 
L 3597 3500 
L 2284 0 
L 1503 0 
L 191 3500 
z
" transform="scale(0.015625)"/>
       <path id="DejaVuSans-79" d="M 2059 -325 
Q 1816 -950 1584 -1140 
Q 1353 -1331 966 -1331 
L 506 -1331 
L 506 -850 
L 844 -850 
Q 1081 -850 1212 -737 
Q 1344 -625 1503 -206 
L 1606 56 
L 191 3500 
L 800 3500 
L 1894 763 
L 2988 3500 
L 3597 3500 
L 2059 -325 
z
" transform="scale(0.015625)"/>
      </defs>
      <use xlink:href="#DejaVuSans-54"/>
      <use xlink:href="#DejaVuSans-65" transform="translate(44.083984 0)"/>
      <use xlink:href="#DejaVuSans-73" transform="translate(105.607422 0)"/>
      <use xlink:href="#DejaVuSans-74" transform="translate(157.707031 0)"/>
      <use xlink:href="#DejaVuSans-20" transform="translate(196.916016 0)"/>
      <use xlink:href="#DejaVuSans-53" transform="translate(228.703125 0)"/>
      <use xlink:href="#DejaVuSans-65" transform="translate(292.179688 0)"/>
      <use xlink:href="#DejaVuSans-6e" transform="translate(353.703125 0)"/>
      <use xlink:href="#DejaVuSans-73" transform="translate(417.082031 0)"/>
      <use xlink:href="#DejaVuSans-69" transform="translate(469.181641 0)"/>
      <use xlink:href="#DejaVuSans-74" transform="translate(496.964844 0)"/>
      <use xlink:href="#DejaVuSans-69" transform="translate(536.173828 0)"/>
      <use xlink:href="#DejaVuSans-76" transform="translate(563.957031 0)"/>
      <use xlink:href="#DejaVuSans-69" transform="translate(623.136719 0)"/>
      <use xlink:href="#DejaVuSans-74" transform="translate(650.919922 0)"/>
      <use xlink:href="#DejaVuSans-79" transform="translate(690.128906 0)"/>
     </g>
    </g>
   </g>
   <g id="matplotlib.axis_2">
    <g id="ytick_1">
     <g id="line2d_7">
      <defs>
       <path id="m9b644c56fd" d="M 0 0 
L -3.5 0 
" style="stroke: #000000; stroke-width: 0.8"/>
      </defs>
      <g>
       <use xlink:href="#m9b644c56fd" x="39.62" y="167.786772" style="stroke: #000000; stroke-width: 0.8"/>
      </g>
     </g>
     <g id="text_8">
      <!-- 1.2 -->
      <g transform="translate(19.8975 170.826147) scale(0.08 -0.08)">
       <use xlink:href="#DejaVuSans-31"/>
       <use xlink:href="#DejaVuSans-2e" transform="translate(63.623047 0)"/>
       <use xlink:href="#DejaVuSans-32" transform="translate(95.410156 0)"/>
      </g>
     </g>
    </g>
    <g id="ytick_2">
     <g id="line2d_8">
      <g>
       <use xlink:href="#m9b644c56fd" x="39.62" y="149.063622" style="stroke: #000000; stroke-width: 0.8"/>
      </g>
     </g>
     <g id="text_9">
      <!-- 1.3 -->
      <g transform="translate(19.8975 152.102997) scale(0.08 -0.08)">
       <defs>
        <path id="DejaVuSans-33" d="M 2597 2516 
Q 3050 2419 3304 2112 
Q 3559 1806 3559 1356 
Q 3559 666 3084 287 
Q 2609 -91 1734 -91 
Q 1441 -91 1130 -33 
Q 819 25 488 141 
L 488 750 
Q 750 597 1062 519 
Q 1375 441 1716 441 
Q 2309 441 2620 675 
Q 2931 909 2931 1356 
Q 2931 1769 2642 2001 
Q 2353 2234 1838 2234 
L 1294 2234 
L 1294 2753 
L 1863 2753 
Q 2328 2753 2575 2939 
Q 2822 3125 2822 3475 
Q 2822 3834 2567 4026 
Q 2313 4219 1838 4219 
Q 1578 4219 1281 4162 
Q 984 4106 628 3988 
L 628 4550 
Q 988 4650 1302 4700 
Q 1616 4750 1894 4750 
Q 2613 4750 3031 4423 
Q 3450 4097 3450 3541 
Q 3450 3153 3228 2886 
Q 3006 2619 2597 2516 
z
" transform="scale(0.015625)"/>
       </defs>
       <use xlink:href="#DejaVuSans-31"/>
       <use xlink:href="#DejaVuSans-2e" transform="translate(63.623047 0)"/>
       <use xlink:href="#DejaVuSans-33" transform="translate(95.410156 0)"/>
      </g>
     </g>
    </g>
    <g id="ytick_3">
     <g id="line2d_9">
      <g>
       <use xlink:href="#m9b644c56fd" x="39.62" y="130.340472" style="stroke: #000000; stroke-width: 0.8"/>
      </g>
     </g>
     <g id="text_10">
      <!-- 1.4 -->
      <g transform="translate(19.8975 133.379847) scale(0.08 -0.08)">
       <use xlink:href="#DejaVuSans-31"/>
       <use xlink:href="#DejaVuSans-2e" transform="translate(63.623047 0)"/>
       <use xlink:href="#DejaVuSans-34" transform="translate(95.410156 0)"/>
      </g>
     </g>
    </g>
    <g id="ytick_4">
     <g id="line2d_10">
      <g>
       <use xlink:href="#m9b644c56fd" x="39.62" y="111.617323" style="stroke: #000000; stroke-width: 0.8"/>
      </g>
     </g>
     <g id="text_11">
      <!-- 1.5 -->
      <g transform="translate(19.8975 114.656698) scale(0.08 -0.08)">
       <defs>
        <path id="DejaVuSans-35" d="M 691 4666 
L 3169 4666 
L 3169 4134 
L 1269 4134 
L 1269 2991 
Q 1406 3038 1543 3061 
Q 1681 3084 1819 3084 
Q 2600 3084 3056 2656 
Q 3513 2228 3513 1497 
Q 3513 744 3044 326 
Q 2575 -91 1722 -91 
Q 1428 -91 1123 -41 
Q 819 9 494 109 
L 494 744 
Q 775 591 1075 516 
Q 1375 441 1709 441 
Q 2250 441 2565 725 
Q 2881 1009 2881 1497 
Q 2881 1984 2565 2268 
Q 2250 2553 1709 2553 
Q 1456 2553 1204 2497 
Q 953 2441 691 2322 
L 691 4666 
z
" transform="scale(0.015625)"/>
       </defs>
       <use xlink:href="#DejaVuSans-31"/>
       <use xlink:href="#DejaVuSans-2e" transform="translate(63.623047 0)"/>
       <use xlink:href="#DejaVuSans-35" transform="translate(95.410156 0)"/>
      </g>
     </g>
    </g>
    <g id="ytick_5">
     <g id="line2d_11">
      <g>
       <use xlink:href="#m9b644c56fd" x="39.62" y="92.894173" style="stroke: #000000; stroke-width: 0.8"/>
      </g>
     </g>
     <g id="text_12">
      <!-- 1.6 -->
      <g transform="translate(19.8975 95.933548) scale(0.08 -0.08)">
       <use xlink:href="#DejaVuSans-31"/>
       <use xlink:href="#DejaVuSans-2e" transform="translate(63.623047 0)"/>
       <use xlink:href="#DejaVuSans-36" transform="translate(95.410156 0)"/>
      </g>
     </g>
    </g>
    <g id="ytick_6">
     <g id="line2d_12">
      <g>
       <use xlink:href="#m9b644c56fd" x="39.62" y="74.171024" style="stroke: #000000; stroke-width: 0.8"/>
      </g>
     </g>
     <g id="text_13">
      <!-- 1.7 -->
      <g transform="translate(19.8975 77.210399) scale(0.08 -0.08)">
       <defs>
        <path id="DejaVuSans-37" d="M 525 4666 
L 3525 4666 
L 3525 4397 
L 1831 0 
L 1172 0 
L 2766 4134 
L 525 4134 
L 525 4666 
z
" transform="scale(0.015625)"/>
       </defs>
       <use xlink:href="#DejaVuSans-31"/>
       <use xlink:href="#DejaVuSans-2e" transform="translate(63.623047 0)"/>
       <use xlink:href="#DejaVuSans-37" transform="translate(95.410156 0)"/>
      </g>
     </g>
    </g>
    <g id="ytick_7">
     <g id="line2d_13">
      <g>
       <use xlink:href="#m9b644c56fd" x="39.62" y="55.447874" style="stroke: #000000; stroke-width: 0.8"/>
      </g>
     </g>
     <g id="text_14">
      <!-- 1.8 -->
      <g transform="translate(19.8975 58.487249) scale(0.08 -0.08)">
       <use xlink:href="#DejaVuSans-31"/>
       <use xlink:href="#DejaVuSans-2e" transform="translate(63.623047 0)"/>
       <use xlink:href="#DejaVuSans-38" transform="translate(95.410156 0)"/>
      </g>
     </g>
    </g>
    <g id="ytick_8">
     <g id="line2d_14">
      <g>
       <use xlink:href="#m9b644c56fd" x="39.62" y="36.724724" style="stroke: #000000; stroke-width: 0.8"/>
      </g>
     </g>
     <g id="text_15">
      <!-- 1.9 -->
      <g transform="translate(19.8975 39.764099) scale(0.08 -0.08)">
       <defs>
        <path id="DejaVuSans-39" d="M 703 97 
L 703 672 
Q 941 559 1184 500 
Q 1428 441 1663 441 
Q 2288 441 2617 861 
Q 2947 1281 2994 2138 
Q 2813 1869 2534 1725 
Q 2256 1581 1919 1581 
Q 1219 1581 811 2004 
Q 403 2428 403 3163 
Q 403 3881 828 4315 
Q 1253 4750 1959 4750 
Q 2769 4750 3195 4129 
Q 3622 3509 3622 2328 
Q 3622 1225 3098 567 
Q 2575 -91 1691 -91 
Q 1453 -91 1209 -44 
Q 966 3 703 97 
z
M 1959 2075 
Q 2384 2075 2632 2365 
Q 2881 2656 2881 3163 
Q 2881 3666 2632 3958 
Q 2384 4250 1959 4250 
Q 1534 4250 1286 3958 
Q 1038 3666 1038 3163 
Q 1038 2656 1286 2365 
Q 1534 2075 1959 2075 
z
" transform="scale(0.015625)"/>
       </defs>
       <use xlink:href="#DejaVuSans-31"/>
       <use xlink:href="#DejaVuSans-2e" transform="translate(63.623047 0)"/>
       <use xlink:href="#DejaVuSans-39" transform="translate(95.410156 0)"/>
      </g>
     </g>
    </g>
    <g id="ytick_9">
     <g id="line2d_15">
      <g>
       <use xlink:href="#m9b644c56fd" x="39.62" y="18.001575" style="stroke: #000000; stroke-width: 0.8"/>
      </g>
     </g>
     <g id="text_16">
      <!-- 2.0 -->
      <g transform="translate(19.8975 21.04095) scale(0.08 -0.08)">
       <use xlink:href="#DejaVuSans-32"/>
       <use xlink:href="#DejaVuSans-2e" transform="translate(63.623047 0)"/>
       <use xlink:href="#DejaVuSans-30" transform="translate(95.410156 0)"/>
      </g>
     </g>
    </g>
    <g id="text_17">
     <!-- Effective reproduction number Reff -->
     <g transform="translate(14.23375 158.520261) rotate(-90) scale(0.08 -0.08)">
      <defs>
       <path id="DejaVuSans-45" d="M 628 4666 
L 3578 4666 
L 3578 4134 
L 1259 4134 
L 1259 2753 
L 3481 2753 
L 3481 2222 
L 1259 2222 
L 1259 531 
L 3634 531 
L 3634 0 
L 628 0 
L 628 4666 
z
" transform="scale(0.015625)"/>
       <path id="DejaVuSans-66" d="M 2375 4863 
L 2375 4384 
L 1825 4384 
Q 1516 4384 1395 4259 
Q 1275 4134 1275 3809 
L 1275 3500 
L 2222 3500 
L 2222 3053 
L 1275 3053 
L 1275 0 
L 697 0 
L 697 3053 
L 147 3053 
L 147 3500 
L 697 3500 
L 697 3744 
Q 697 4328 969 4595 
Q 1241 4863 1831 4863 
L 2375 4863 
z
" transform="scale(0.015625)"/>
       <path id="DejaVuSans-63" d="M 3122 3366 
L 3122 2828 
Q 2878 2963 2633 3030 
Q 2388 3097 2138 3097 
Q 1578 3097 1268 2742 
Q 959 2388 959 1747 
Q 959 1106 1268 751 
Q 1578 397 2138 397 
Q 2388 397 2633 464 
Q 2878 531 3122 666 
L 3122 134 
Q 2881 22 2623 -34 
Q 2366 -91 2075 -91 
Q 1284 -91 818 406 
Q 353 903 353 1747 
Q 353 2603 823 3093 
Q 1294 3584 2113 3584 
Q 2378 3584 2631 3529 
Q 2884 3475 3122 3366 
z
" transform="scale(0.015625)"/>
       <path id="DejaVuSans-72" d="M 2631 2963 
Q 2534 3019 2420 3045 
Q 2306 3072 2169 3072 
Q 1681 3072 1420 2755 
Q 1159 2438 1159 1844 
L 1159 0 
L 581 0 
L 581 3500 
L 1159 3500 
L 1159 2956 
Q 1341 3275 1631 3429 
Q 1922 3584 2338 3584 
Q 2397 3584 2469 3576 
Q 2541 3569 2628 3553 
L 2631 2963 
z
" transform="scale(0.015625)"/>
       <path id="DejaVuSans-70" d="M 1159 525 
L 1159 -1331 
L 581 -1331 
L 581 3500 
L 1159 3500 
L 1159 2969 
Q 1341 3281 1617 3432 
Q 1894 3584 2278 3584 
Q 2916 3584 3314 3078 
Q 3713 2572 3713 1747 
Q 3713 922 3314 415 
Q 2916 -91 2278 -91 
Q 1894 -91 1617 61 
Q 1341 213 1159 525 
z
M 3116 1747 
Q 3116 2381 2855 2742 
Q 2594 3103 2138 3103 
Q 1681 3103 1420 2742 
Q 1159 2381 1159 1747 
Q 1159 1113 1420 752 
Q 1681 391 2138 391 
Q 2594 391 2855 752 
Q 3116 1113 3116 1747 
z
" transform="scale(0.015625)"/>
       <path id="DejaVuSans-6f" d="M 1959 3097 
Q 1497 3097 1228 2736 
Q 959 2375 959 1747 
Q 959 1119 1226 758 
Q 1494 397 1959 397 
Q 2419 397 2687 759 
Q 2956 1122 2956 1747 
Q 2956 2369 2687 2733 
Q 2419 3097 1959 3097 
z
M 1959 3584 
Q 2709 3584 3137 3096 
Q 3566 2609 3566 1747 
Q 3566 888 3137 398 
Q 2709 -91 1959 -91 
Q 1206 -91 779 398 
Q 353 888 353 1747 
Q 353 2609 779 3096 
Q 1206 3584 1959 3584 
z
" transform="scale(0.015625)"/>
       <path id="DejaVuSans-64" d="M 2906 2969 
L 2906 4863 
L 3481 4863 
L 3481 0 
L 2906 0 
L 2906 525 
Q 2725 213 2448 61 
Q 2172 -91 1784 -91 
Q 1150 -91 751 415 
Q 353 922 353 1747 
Q 353 2572 751 3078 
Q 1150 3584 1784 3584 
Q 2172 3584 2448 3432 
Q 2725 3281 2906 2969 
z
M 947 1747 
Q 947 1113 1208 752 
Q 1469 391 1925 391 
Q 2381 391 2643 752 
Q 2906 1113 2906 1747 
Q 2906 2381 2643 2742 
Q 2381 3103 1925 3103 
Q 1469 3103 1208 2742 
Q 947 2381 947 1747 
z
" transform="scale(0.015625)"/>
       <path id="DejaVuSans-75" d="M 544 1381 
L 544 3500 
L 1119 3500 
L 1119 1403 
Q 1119 906 1312 657 
Q 1506 409 1894 409 
Q 2359 409 2629 706 
Q 2900 1003 2900 1516 
L 2900 3500 
L 3475 3500 
L 3475 0 
L 2900 0 
L 2900 538 
Q 2691 219 2414 64 
Q 2138 -91 1772 -91 
Q 1169 -91 856 284 
Q 544 659 544 1381 
z
M 1991 3584 
L 1991 3584 
z
" transform="scale(0.015625)"/>
       <path id="DejaVuSans-6d" d="M 3328 2828 
Q 3544 3216 3844 3400 
Q 4144 3584 4550 3584 
Q 5097 3584 5394 3201 
Q 5691 2819 5691 2113 
L 5691 0 
L 5113 0 
L 5113 2094 
Q 5113 2597 4934 2840 
Q 4756 3084 4391 3084 
Q 3944 3084 3684 2787 
Q 3425 2491 3425 1978 
L 3425 0 
L 2847 0 
L 2847 2094 
Q 2847 2600 2669 2842 
Q 2491 3084 2119 3084 
Q 1678 3084 1418 2786 
Q 1159 2488 1159 1978 
L 1159 0 
L 581 0 
L 581 3500 
L 1159 3500 
L 1159 2956 
Q 1356 3278 1631 3431 
Q 1906 3584 2284 3584 
Q 2666 3584 2933 3390 
Q 3200 3197 3328 2828 
z
" transform="scale(0.015625)"/>
       <path id="DejaVuSans-62" d="M 3116 1747 
Q 3116 2381 2855 2742 
Q 2594 3103 2138 3103 
Q 1681 3103 1420 2742 
Q 1159 2381 1159 1747 
Q 1159 1113 1420 752 
Q 1681 391 2138 391 
Q 2594 391 2855 752 
Q 3116 1113 3116 1747 
z
M 1159 2969 
Q 1341 3281 1617 3432 
Q 1894 3584 2278 3584 
Q 2916 3584 3314 3078 
Q 3713 2572 3713 1747 
Q 3713 922 3314 415 
Q 2916 -91 2278 -91 
Q 1894 -91 1617 61 
Q 1341 213 1159 525 
L 1159 0 
L 581 0 
L 581 4863 
L 1159 4863 
L 1159 2969 
z
" transform="scale(0.015625)"/>
       <path id="DejaVuSans-52" d="M 2841 2188 
Q 3044 2119 3236 1894 
Q 3428 1669 3622 1275 
L 4263 0 
L 3584 0 
L 2988 1197 
Q 2756 1666 2539 1819 
Q 2322 1972 1947 1972 
L 1259 1972 
L 1259 0 
L 628 0 
L 628 4666 
L 2053 4666 
Q 2853 4666 3247 4331 
Q 3641 3997 3641 3322 
Q 3641 2881 3436 2590 
Q 3231 2300 2841 2188 
z
M 1259 4147 
L 1259 2491 
L 2053 2491 
Q 2509 2491 2742 2702 
Q 2975 2913 2975 3322 
Q 2975 3731 2742 3939 
Q 2509 4147 2053 4147 
L 1259 4147 
z
" transform="scale(0.015625)"/>
      </defs>
      <use xlink:href="#DejaVuSans-45"/>
      <use xlink:href="#DejaVuSans-66" transform="translate(63.183594 0)"/>
      <use xlink:href="#DejaVuSans-66" transform="translate(98.388672 0)"/>
      <use xlink:href="#DejaVuSans-65" transform="translate(133.59375 0)"/>
      <use xlink:href="#DejaVuSans-63" transform="translate(195.117188 0)"/>
      <use xlink:href="#DejaVuSans-74" transform="translate(250.097656 0)"/>
      <use xlink:href="#DejaVuSans-69" transform="translate(289.306641 0)"/>
      <use xlink:href="#DejaVuSans-76" transform="translate(317.089844 0)"/>
      <use xlink:href="#DejaVuSans-65" transform="translate(376.269531 0)"/>
      <use xlink:href="#DejaVuSans-20" transform="translate(437.792969 0)"/>
      <use xlink:href="#DejaVuSans-72" transform="translate(469.580078 0)"/>
      <use xlink:href="#DejaVuSans-65" transform="translate(508.443359 0)"/>
      <use xlink:href="#DejaVuSans-70" transform="translate(569.966797 0)"/>
      <use xlink:href="#DejaVuSans-72" transform="translate(633.443359 0)"/>
      <use xlink:href="#DejaVuSans-6f" transform="translate(672.306641 0)"/>
      <use xlink:href="#DejaVuSans-64" transform="translate(733.488281 0)"/>
      <use xlink:href="#DejaVuSans-75" transform="translate(796.964844 0)"/>
      <use xlink:href="#DejaVuSans-63" transform="translate(860.34375 0)"/>
      <use xlink:href="#DejaVuSans-74" transform="translate(915.324219 0)"/>
      <use xlink:href="#DejaVuSans-69" transform="translate(954.533203 0)"/>
      <use xlink:href="#DejaVuSans-6f" transform="translate(982.316406 0)"/>
      <use xlink:href="#DejaVuSans-6e" transform="translate(1043.498047 0)"/>
      <use xlink:href="#DejaVuSans-20" transform="translate(1106.876953 0)"/>
      <use xlink:href="#DejaVuSans-6e" transform="translate(1138.664062 0)"/>
      <use xlink:href="#DejaVuSans-75" transform="translate(1202.042969 0)"/>
      <use xlink:href="#DejaVuSans-6d" transform="translate(1265.421875 0)"/>
      <use xlink:href="#DejaVuSans-62" transform="translate(1362.833984 0)"/>
      <use xlink:href="#DejaVuSans-65" transform="translate(1426.310547 0)"/>
      <use xlink:href="#DejaVuSans-72" transform="translate(1487.833984 0)"/>
      <use xlink:href="#DejaVuSans-20" transform="translate(1528.947266 0)"/>
      <use xlink:href="#DejaVuSans-52" transform="translate(1560.734375 0)"/>
      <use xlink:href="#DejaVuSans-65" transform="translate(1625.716797 0)"/>
      <use xlink:href="#DejaVuSans-66" transform="translate(1687.240234 0)"/>
      <use xlink:href="#DejaVuSans-66" transform="translate(1722.445312 0)"/>
     </g>
    </g>
   </g>
   <g id="line2d_16">
    <path d="M 48.893794 18.427639 
L 52.603311 20.00087 
L 56.312829 23.309026 
L 60.022346 25.231113 
L 63.731864 26.50196 
L 67.441382 31.765563 
L 71.150899 32.147289 
L 74.860417 34.849227 
L 78.569934 36.441106 
L 82.279452 39.506647 
L 85.988969 41.644007 
L 89.698487 43.677678 
L 93.408004 46.942996 
L 97.117522 48.606023 
L 100.827039 52.121819 
L 104.536557 53.726318 
L 108.246074 56.200742 
L 111.955592 58.96674 
L 115.66511 61.466977 
L 119.374627 63.454043 
L 123.084145 65.876968 
L 126.793662 68.154939 
L 130.50318 70.673764 
L 134.212697 72.953988 
L 137.922215 76.740833 
L 141.631732 78.154973 
L 145.34125 80.150861 
L 149.050767 82.218383 
L 152.760285 85.316989 
L 156.469802 86.543992 
L 160.17932 89.472443 
L 163.888838 92.890841 
L 167.598355 94.585847 
L 171.307873 96.45131 
L 175.01739 99.289829 
L 178.726908 102.554008 
L 182.436425 104.336212 
L 186.145943 106.866942 
L 189.85546 108.515496 
L 193.564978 111.960964 
L 197.274495 113.906645 
L 200.984013 116.533217 
L 204.69353 118.642211 
L 208.403048 121.556801 
L 212.112565 124.221192 
L 215.822083 126.801465 
L 219.531601 129.171673 
L 223.241118 131.189244 
L 226.950636 134.546794 
L 230.660153 136.769827 
L 234.369671 140.900056 
" clip-path="url(#p66788c86e0)" style="fill: none; stroke: #e377c2; stroke-opacity: 0.6; stroke-width: 1.5; stroke-linecap: square"/>
   </g>
   <g id="line2d_17">
    <path d="M 48.893794 18.001575 
L 52.603311 20.391793 
L 56.312829 22.790786 
L 60.022346 25.171727 
L 63.731864 27.550988 
L 67.441382 30.030583 
L 71.150899 32.36017 
L 74.860417 34.727823 
L 78.569934 37.091678 
L 82.279452 39.565205 
L 85.988969 41.999967 
L 89.698487 44.342937 
L 93.408004 46.690792 
L 97.117522 49.100615 
L 100.827039 51.630215 
L 104.536557 53.914708 
L 108.246074 56.325055 
L 111.955592 58.844359 
L 115.66511 61.015817 
L 119.374627 63.52516 
L 123.084145 65.768772 
L 126.793662 68.372622 
L 130.50318 70.804953 
L 134.212697 73.144731 
L 137.922215 75.617703 
L 141.631732 77.872057 
L 145.34125 80.281408 
L 149.050767 82.760044 
L 152.760285 85.11074 
L 156.469802 87.531549 
L 160.17932 90.09892 
L 163.888838 92.138305 
L 167.598355 94.544048 
L 171.307873 97.037623 
L 175.01739 99.355609 
L 178.726908 101.844355 
L 182.436425 104.087494 
L 186.145943 106.473992 
L 189.85546 108.807807 
L 193.564978 111.293852 
L 197.274495 113.694628 
L 200.984013 116.478097 
L 204.69353 118.447102 
L 208.403048 120.827086 
L 212.112565 123.147631 
L 215.822083 125.638622 
L 219.531601 128.262384 
L 223.241118 130.845127 
L 226.950636 133.172314 
L 230.660153 135.050526 
L 234.369671 137.934783 
" clip-path="url(#p66788c86e0)" style="fill: none; stroke-dasharray: 5.55,2.4; stroke-dashoffset: 0; stroke: #e377c2; stroke-width: 1.5"/>
   </g>
   <g id="line2d_18">
    <path d="M 48.893794 60.383307 
L 52.603311 61.049791 
L 56.312829 62.875722 
L 60.022346 64.641802 
L 63.731864 66.663041 
L 67.441382 67.740371 
L 71.150899 69.11641 
L 74.860417 70.746784 
L 78.569934 71.688297 
L 82.279452 74.074487 
L 85.988969 74.926353 
L 89.698487 76.145567 
L 93.408004 78.255142 
L 97.117522 80.629462 
L 100.827039 81.456883 
L 104.536557 83.246509 
L 108.246074 85.131883 
L 111.955592 86.545228 
L 115.66511 87.868019 
L 119.374627 90.061387 
L 123.084145 90.616877 
L 126.793662 92.120345 
L 130.50318 93.878112 
L 134.212697 95.358961 
L 137.922215 97.228924 
L 141.631732 98.932374 
L 145.34125 101.257692 
L 149.050767 101.959527 
L 152.760285 103.328697 
L 156.469802 104.241375 
L 160.17932 105.414943 
L 163.888838 108.589864 
L 167.598355 109.857967 
L 171.307873 112.385388 
L 175.01739 112.270761 
L 178.726908 114.498136 
L 182.436425 116.536501 
L 186.145943 118.321302 
L 189.85546 119.265836 
L 193.564978 119.609936 
L 197.274495 123.02398 
L 200.984013 124.126342 
L 204.69353 125.901456 
L 208.403048 127.84167 
L 212.112565 129.454455 
L 215.822083 130.744111 
L 219.531601 132.938999 
L 223.241118 134.732936 
L 226.950636 135.4104 
L 230.660153 137.978403 
L 234.369671 139.829658 
" clip-path="url(#p66788c86e0)" style="fill: none; stroke: #443983; stroke-opacity: 0.6; stroke-width: 1.5; stroke-linecap: square"/>
   </g>
   <g id="line2d_19">
    <path d="M 48.893794 59.548814 
L 52.603311 60.973987 
L 56.312829 62.662619 
L 60.022346 64.192145 
L 63.731864 65.820797 
L 67.441382 67.469327 
L 71.150899 68.803642 
L 74.860417 70.39651 
L 78.569934 71.897347 
L 82.279452 73.585614 
L 85.988969 75.183467 
L 89.698487 76.759168 
L 93.408004 78.544159 
L 97.117522 79.993624 
L 100.827039 81.344464 
L 104.536557 82.821387 
L 108.246074 84.582021 
L 111.955592 86.242846 
L 115.66511 87.746621 
L 119.374627 89.342843 
L 123.084145 90.741054 
L 126.793662 92.283248 
L 130.50318 93.748599 
L 134.212697 95.710002 
L 137.922215 97.122137 
L 141.631732 99.07892 
L 145.34125 100.107521 
L 149.050767 101.579091 
L 152.760285 103.188251 
L 156.469802 104.659219 
L 160.17932 106.239554 
L 163.888838 107.981073 
L 167.598355 109.445378 
L 171.307873 111.280255 
L 175.01739 112.644128 
L 178.726908 114.044342 
L 182.436425 115.853253 
L 186.145943 117.320224 
L 189.85546 118.724106 
L 193.564978 120.772052 
L 197.274495 121.695773 
L 200.984013 123.242518 
L 204.69353 124.853812 
L 208.403048 126.252967 
L 212.112565 128.217061 
L 215.822083 129.870059 
L 219.531601 131.401902 
L 223.241118 133.147625 
L 226.950636 134.53784 
L 230.660153 136.215978 
L 234.369671 137.771892 
" clip-path="url(#p66788c86e0)" style="fill: none; stroke-dasharray: 5.55,2.4; stroke-dashoffset: 0; stroke: #443983; stroke-width: 1.5"/>
   </g>
   <g id="line2d_20">
    <path d="M 48.893794 93.946938 
L 52.603311 95.218839 
L 56.312829 95.565108 
L 60.022346 96.089054 
L 63.731864 96.356533 
L 67.441382 98.014906 
L 71.150899 98.572118 
L 74.860417 100.131427 
L 78.569934 100.897945 
L 82.279452 100.975571 
L 85.988969 101.691994 
L 89.698487 102.82965 
L 93.408004 103.833361 
L 97.117522 103.863842 
L 100.827039 106.467689 
L 104.536557 107.918427 
L 108.246074 107.640345 
L 111.955592 108.27538 
L 115.66511 109.920674 
L 119.374627 109.736208 
L 123.084145 111.425635 
L 126.793662 112.227522 
L 130.50318 112.546897 
L 134.212697 114.658473 
L 137.922215 114.29507 
L 141.631732 115.242878 
L 145.34125 116.415392 
L 149.050767 117.982772 
L 152.760285 118.169738 
L 156.469802 118.695098 
L 160.17932 120.926915 
L 163.888838 122.679763 
L 167.598355 122.695453 
L 171.307873 124.194716 
L 175.01739 122.313072 
L 178.726908 125.044466 
L 182.436425 126.145002 
L 186.145943 127.906618 
L 189.85546 127.748261 
L 193.564978 128.978469 
L 197.274495 130.86747 
L 200.984013 130.731551 
L 204.69353 132.613136 
L 208.403048 131.62773 
L 212.112565 133.989994 
L 215.822083 134.766113 
L 219.531601 134.037526 
L 223.241118 135.81859 
L 226.950636 137.31836 
L 230.660153 136.576244 
L 234.369671 140.335025 
" clip-path="url(#p66788c86e0)" style="fill: none; stroke: #31688e; stroke-opacity: 0.6; stroke-width: 1.5; stroke-linecap: square"/>
   </g>
   <g id="line2d_21">
    <path d="M 48.893794 93.210773 
L 52.603311 93.96931 
L 56.312829 94.805855 
L 60.022346 95.550943 
L 63.731864 96.588438 
L 67.441382 97.265449 
L 71.150899 98.695862 
L 74.860417 99.43303 
L 78.569934 100.125546 
L 82.279452 101.405835 
L 85.988969 101.975981 
L 89.698487 103.208458 
L 93.408004 103.984648 
L 97.117522 104.630955 
L 100.827039 105.586377 
L 104.536557 106.32159 
L 108.246074 107.118093 
L 111.955592 108.22236 
L 115.66511 109.287232 
L 119.374627 109.962953 
L 123.084145 111.039991 
L 126.793662 111.789559 
L 130.50318 112.981199 
L 134.212697 113.521436 
L 137.922215 114.233095 
L 141.631732 115.696013 
L 145.34125 116.496628 
L 149.050767 117.336966 
L 152.760285 117.833759 
L 156.469802 118.894576 
L 160.17932 120.10402 
L 163.888838 120.680567 
L 167.598355 121.763571 
L 171.307873 122.698004 
L 175.01739 123.565821 
L 178.726908 124.071536 
L 182.436425 125.146225 
L 186.145943 125.657312 
L 189.85546 126.813827 
L 193.564978 127.540462 
L 197.274495 128.902992 
L 200.984013 129.69867 
L 204.69353 130.94193 
L 208.403048 131.614642 
L 212.112565 132.544919 
L 215.822083 133.094578 
L 219.531601 134.044644 
L 223.241118 135.750617 
L 226.950636 136.367603 
L 230.660153 136.463573 
L 234.369671 137.990207 
" clip-path="url(#p66788c86e0)" style="fill: none; stroke-dasharray: 5.55,2.4; stroke-dashoffset: 0; stroke: #31688e; stroke-width: 1.5"/>
   </g>
   <g id="line2d_22">
    <path d="M 48.893794 116.789652 
L 52.603311 115.583298 
L 56.312829 116.769746 
L 60.022346 117.14146 
L 63.731864 117.236762 
L 67.441382 116.98334 
L 71.150899 118.935684 
L 74.860417 119.507169 
L 78.569934 119.82697 
L 82.279452 119.813381 
L 85.988969 119.99421 
L 89.698487 120.782796 
L 93.408004 121.831785 
L 97.117522 121.92256 
L 100.827039 122.35407 
L 104.536557 124.568355 
L 108.246074 123.606172 
L 111.955592 123.169241 
L 115.66511 123.808169 
L 119.374627 125.754848 
L 123.084145 126.367691 
L 126.793662 124.730197 
L 130.50318 125.672482 
L 134.212697 128.227093 
L 137.922215 126.490949 
L 141.631732 126.195849 
L 145.34125 127.272883 
L 149.050767 126.67694 
L 152.760285 131.636549 
L 156.469802 129.380063 
L 160.17932 129.237325 
L 163.888838 130.105577 
L 167.598355 128.924353 
L 171.307873 131.272999 
L 175.01739 132.355685 
L 178.726908 132.406284 
L 182.436425 133.536076 
L 186.145943 133.428179 
L 189.85546 135.825227 
L 193.564978 133.896262 
L 197.274495 133.837165 
L 200.984013 135.546533 
L 204.69353 134.701042 
L 208.403048 135.163645 
L 212.112565 135.054565 
L 215.822083 136.332019 
L 219.531601 136.153427 
L 223.241118 137.969517 
L 226.950636 137.615733 
L 230.660153 138.588006 
L 234.369671 139.941144 
" clip-path="url(#p66788c86e0)" style="fill: none; stroke: #21918c; stroke-opacity: 0.6; stroke-width: 1.5; stroke-linecap: square"/>
   </g>
   <g id="line2d_23">
    <path d="M 48.893794 115.320462 
L 52.603311 115.819851 
L 56.312829 116.133572 
L 60.022346 116.473102 
L 63.731864 116.964174 
L 67.441382 117.518923 
L 71.150899 117.567536 
L 74.860417 118.524031 
L 78.569934 118.890982 
L 82.279452 119.30799 
L 85.988969 119.75314 
L 89.698487 120.101544 
L 93.408004 120.848287 
L 97.117522 120.732171 
L 100.827039 121.502285 
L 104.536557 122.016068 
L 108.246074 122.549084 
L 111.955592 122.992694 
L 115.66511 123.557881 
L 119.374627 123.914504 
L 123.084145 123.970497 
L 126.793662 124.787982 
L 130.50318 125.329933 
L 134.212697 125.319332 
L 137.922215 126.21764 
L 141.631732 126.574644 
L 145.34125 126.851573 
L 149.050767 127.422437 
L 152.760285 127.727737 
L 156.469802 128.284093 
L 160.17932 129.31747 
L 163.888838 129.523423 
L 167.598355 129.312491 
L 171.307873 129.544234 
L 175.01739 131.001943 
L 178.726908 131.190513 
L 182.436425 131.381963 
L 186.145943 131.855357 
L 189.85546 132.061454 
L 193.564978 132.678186 
L 197.274495 133.144455 
L 200.984013 133.870256 
L 204.69353 133.851639 
L 208.403048 134.711361 
L 212.112565 135.187492 
L 215.822083 135.160231 
L 219.531601 135.515424 
L 223.241118 136.272992 
L 226.950636 136.966496 
L 230.660153 137.367245 
L 234.369671 137.232828 
" clip-path="url(#p66788c86e0)" style="fill: none; stroke-dasharray: 5.55,2.4; stroke-dashoffset: 0; stroke: #21918c; stroke-width: 1.5"/>
   </g>
   <g id="line2d_24">
    <path d="M 48.893794 127.974505 
L 52.603311 129.121251 
L 56.312829 129.161569 
L 60.022346 129.813066 
L 63.731864 130.093608 
L 67.441382 128.88287 
L 71.150899 130.200062 
L 74.860417 130.446361 
L 78.569934 131.984376 
L 82.279452 130.231784 
L 85.988969 131.347123 
L 89.698487 130.490931 
L 93.408004 132.994541 
L 97.117522 130.70448 
L 100.827039 134.564923 
L 104.536557 131.847978 
L 108.246074 131.896595 
L 111.955592 132.264843 
L 115.66511 132.171046 
L 119.374627 132.927272 
L 123.084145 133.510641 
L 126.793662 134.063425 
L 130.50318 133.263662 
L 134.212697 133.443335 
L 137.922215 133.499811 
L 141.631732 133.648946 
L 145.34125 133.538033 
L 149.050767 136.124035 
L 152.760285 132.939592 
L 156.469802 134.141644 
L 160.17932 133.976809 
L 163.888838 135.490805 
L 167.598355 135.818304 
L 171.307873 136.739385 
L 175.01739 135.428748 
L 178.726908 135.213634 
L 182.436425 135.988953 
L 186.145943 135.545108 
L 189.85546 136.090776 
L 193.564978 136.515419 
L 197.274495 137.555137 
L 200.984013 136.155483 
L 204.69353 137.705989 
L 208.403048 137.383782 
L 212.112565 137.390905 
L 215.822083 137.71311 
L 219.531601 137.758644 
L 223.241118 138.316029 
L 226.950636 139.002526 
L 230.660153 139.308021 
L 234.369671 138.797264 
" clip-path="url(#p66788c86e0)" style="fill: none; stroke: #35b779; stroke-opacity: 0.6; stroke-width: 1.5; stroke-linecap: square"/>
   </g>
   <g id="line2d_25">
    <path d="M 48.893794 127.900489 
L 52.603311 128.31808 
L 56.312829 128.514335 
L 60.022346 128.436842 
L 63.731864 128.531553 
L 67.441382 128.643191 
L 71.150899 129.211374 
L 74.860417 129.171292 
L 78.569934 129.889893 
L 82.279452 129.365629 
L 85.988969 129.760616 
L 89.698487 130.037695 
L 93.408004 130.196147 
L 97.117522 130.302143 
L 100.827039 130.412079 
L 104.536557 130.689808 
L 108.246074 131.030092 
L 111.955592 130.995817 
L 115.66511 131.574409 
L 119.374627 131.230062 
L 123.084145 131.905365 
L 126.793662 131.710231 
L 130.50318 132.697007 
L 134.212697 132.120651 
L 137.922215 132.411077 
L 141.631732 132.364143 
L 145.34125 132.941808 
L 149.050767 132.850213 
L 152.760285 133.319707 
L 156.469802 133.428624 
L 160.17932 133.787745 
L 163.888838 133.511372 
L 167.598355 133.667863 
L 171.307873 133.892073 
L 175.01739 134.012665 
L 178.726908 135.036479 
L 182.436425 134.93937 
L 186.145943 135.104392 
L 189.85546 134.528289 
L 193.564978 135.603258 
L 197.274495 135.708458 
L 200.984013 135.955464 
L 204.69353 136.340479 
L 208.403048 136.02226 
L 212.112565 136.711767 
L 215.822083 136.294248 
L 219.531601 137.198231 
L 223.241118 137.532045 
L 226.950636 136.700691 
L 230.660153 137.29089 
L 234.369671 137.929471 
" clip-path="url(#p66788c86e0)" style="fill: none; stroke-dasharray: 5.55,2.4; stroke-dashoffset: 0; stroke: #35b779; stroke-width: 1.5"/>
   </g>
   <g id="line2d_26">
    <path d="M 48.893794 135.651782 
L 52.603311 135.249098 
L 56.312829 135.147209 
L 60.022346 136.645994 
L 63.731864 135.33977 
L 67.441382 136.48602 
L 71.150899 135.923133 
L 74.860417 135.764827 
L 78.569934 135.657372 
L 82.279452 134.638287 
L 85.988969 136.206125 
L 89.698487 137.020364 
L 93.408004 135.925035 
L 97.117522 135.166879 
L 100.827039 137.51536 
L 104.536557 137.633728 
L 108.246074 136.311527 
L 111.955592 136.836747 
L 115.66511 137.051319 
L 119.374627 135.795776 
L 123.084145 135.972049 
L 126.793662 137.705791 
L 130.50318 136.499846 
L 134.212697 136.996418 
L 137.922215 138.157608 
L 141.631732 138.697816 
L 145.34125 135.326057 
L 149.050767 137.485099 
L 152.760285 138.714814 
L 156.469802 138.195149 
L 160.17932 137.473033 
L 163.888838 137.992808 
L 167.598355 138.268719 
L 171.307873 136.921596 
L 175.01739 137.499777 
L 178.726908 137.657925 
L 182.436425 138.121464 
L 186.145943 139.457169 
L 189.85546 139.550234 
L 193.564978 138.999615 
L 197.274495 138.435016 
L 200.984013 137.575241 
L 204.69353 138.173196 
L 208.403048 138.330722 
L 212.112565 139.776251 
L 215.822083 138.575883 
L 219.531601 138.582749 
L 223.241118 139.623036 
L 226.950636 139.226045 
L 230.660153 140.555635 
L 234.369671 138.94558 
" clip-path="url(#p66788c86e0)" style="fill: none; stroke: #90d743; stroke-opacity: 0.6; stroke-width: 1.5; stroke-linecap: square"/>
   </g>
   <g id="line2d_27">
    <path d="M 48.893794 133.963852 
L 52.603311 133.780907 
L 56.312829 133.656591 
L 60.022346 133.898203 
L 63.731864 134.283409 
L 67.441382 134.326688 
L 71.150899 134.213941 
L 74.860417 134.436211 
L 78.569934 134.349179 
L 82.279452 134.563122 
L 85.988969 134.962191 
L 89.698487 134.733943 
L 93.408004 134.90163 
L 97.117522 135.220453 
L 100.827039 134.95891 
L 104.536557 135.006074 
L 108.246074 134.671081 
L 111.955592 134.852482 
L 115.66511 135.340329 
L 119.374627 135.04597 
L 123.084145 135.235572 
L 126.793662 135.26818 
L 130.50318 135.164097 
L 134.212697 135.131657 
L 137.922215 135.515739 
L 141.631732 135.899843 
L 145.34125 135.709418 
L 149.050767 135.639844 
L 152.760285 135.940342 
L 156.469802 135.931851 
L 160.17932 136.079053 
L 163.888838 135.825805 
L 167.598355 136.522626 
L 171.307873 136.292511 
L 175.01739 136.574852 
L 178.726908 136.822638 
L 182.436425 136.546466 
L 186.145943 136.291575 
L 189.85546 136.933422 
L 193.564978 136.606382 
L 197.274495 136.694316 
L 200.984013 136.761071 
L 204.69353 137.170616 
L 208.403048 136.95534 
L 212.112565 137.208987 
L 215.822083 137.287413 
L 219.531601 137.336748 
L 223.241118 137.67811 
L 226.950636 137.716938 
L 230.660153 137.650016 
L 234.369671 137.348273 
" clip-path="url(#p66788c86e0)" style="fill: none; stroke-dasharray: 5.55,2.4; stroke-dashoffset: 0; stroke: #90d743; stroke-width: 1.5"/>
   </g>
   <g id="patch_3">
    <path d="M 39.62 167.786772 
L 39.62 8.64 
" style="fill: none; stroke: #000000; stroke-width: 0.8; stroke-linejoin: miter; stroke-linecap: square"/>
   </g>
   <g id="patch_4">
    <path d="M 243.643465 167.786772 
L 243.643465 8.64 
" style="fill: none; stroke: #000000; stroke-width: 0.8; stroke-linejoin: miter; stroke-linecap: square"/>
   </g>
   <g id="patch_5">
    <path d="M 39.62 167.786772 
L 243.643465 167.786772 
" style="fill: none; stroke: #000000; stroke-width: 0.8; stroke-linejoin: miter; stroke-linecap: square"/>
   </g>
   <g id="patch_6">
    <path d="M 39.62 8.64 
L 243.643465 8.64 
" style="fill: none; stroke: #000000; stroke-width: 0.8; stroke-linejoin: miter; stroke-linecap: square"/>
   </g>
   <g id="legend_1">
    <g id="patch_7">
     <path d="M 170.753449 78.410531 
L 239.233465 78.410531 
Q 240.493465 78.410531 240.493465 77.150531 
L 240.493465 13.05 
Q 240.493465 11.79 239.233465 11.79 
L 170.753449 11.79 
Q 169.493449 11.79 169.493449 13.05 
L 169.493449 77.150531 
Q 169.493449 78.410531 170.753449 78.410531 
z
" style="fill: #ffffff; opacity: 0.8; stroke: #cccccc; stroke-linejoin: miter"/>
    </g>
    <g id="line2d_28">
     <path d="M 172.013449 16.892016 
L 178.313449 16.892016 
L 184.613449 16.892016 
" style="fill: none; stroke-dasharray: 5.55,2.4; stroke-dashoffset: 0; stroke: #808080; stroke-width: 1.5"/>
    </g>
    <g id="text_18">
     <!-- Theory -->
     <g transform="translate(189.653449 19.097016) scale(0.063 -0.063)">
      <defs>
       <path id="DejaVuSans-68" d="M 3513 2113 
L 3513 0 
L 2938 0 
L 2938 2094 
Q 2938 2591 2744 2837 
Q 2550 3084 2163 3084 
Q 1697 3084 1428 2787 
Q 1159 2491 1159 1978 
L 1159 0 
L 581 0 
L 581 4863 
L 1159 4863 
L 1159 2956 
Q 1366 3272 1645 3428 
Q 1925 3584 2291 3584 
Q 2894 3584 3203 3211 
Q 3513 2838 3513 2113 
z
" transform="scale(0.015625)"/>
      </defs>
      <use xlink:href="#DejaVuSans-54"/>
      <use xlink:href="#DejaVuSans-68" transform="translate(61.083984 0)"/>
      <use xlink:href="#DejaVuSans-65" transform="translate(124.462891 0)"/>
      <use xlink:href="#DejaVuSans-6f" transform="translate(185.986328 0)"/>
      <use xlink:href="#DejaVuSans-72" transform="translate(247.167969 0)"/>
      <use xlink:href="#DejaVuSans-79" transform="translate(288.28125 0)"/>
     </g>
    </g>
    <g id="line2d_29">
     <path d="M 172.013449 26.139234 
L 178.313449 26.139234 
L 184.613449 26.139234 
" style="fill: none; stroke: #e377c2; stroke-opacity: 0.6; stroke-width: 1.5; stroke-linecap: square"/>
    </g>
    <g id="text_19">
     <!-- Test TAT 0 days -->
     <g transform="translate(189.653449 28.344234) scale(0.063 -0.063)">
      <defs>
       <path id="DejaVuSans-41" d="M 2188 4044 
L 1331 1722 
L 3047 1722 
L 2188 4044 
z
M 1831 4666 
L 2547 4666 
L 4325 0 
L 3669 0 
L 3244 1197 
L 1141 1197 
L 716 0 
L 50 0 
L 1831 4666 
z
" transform="scale(0.015625)"/>
       <path id="DejaVuSans-61" d="M 2194 1759 
Q 1497 1759 1228 1600 
Q 959 1441 959 1056 
Q 959 750 1161 570 
Q 1363 391 1709 391 
Q 2188 391 2477 730 
Q 2766 1069 2766 1631 
L 2766 1759 
L 2194 1759 
z
M 3341 1997 
L 3341 0 
L 2766 0 
L 2766 531 
Q 2569 213 2275 61 
Q 1981 -91 1556 -91 
Q 1019 -91 701 211 
Q 384 513 384 1019 
Q 384 1609 779 1909 
Q 1175 2209 1959 2209 
L 2766 2209 
L 2766 2266 
Q 2766 2663 2505 2880 
Q 2244 3097 1772 3097 
Q 1472 3097 1187 3025 
Q 903 2953 641 2809 
L 641 3341 
Q 956 3463 1253 3523 
Q 1550 3584 1831 3584 
Q 2591 3584 2966 3190 
Q 3341 2797 3341 1997 
z
" transform="scale(0.015625)"/>
      </defs>
      <use xlink:href="#DejaVuSans-54"/>
      <use xlink:href="#DejaVuSans-65" transform="translate(44.083984 0)"/>
      <use xlink:href="#DejaVuSans-73" transform="translate(105.607422 0)"/>
      <use xlink:href="#DejaVuSans-74" transform="translate(157.707031 0)"/>
      <use xlink:href="#DejaVuSans-20" transform="translate(196.916016 0)"/>
      <use xlink:href="#DejaVuSans-54" transform="translate(228.703125 0)"/>
      <use xlink:href="#DejaVuSans-41" transform="translate(282.037109 0)"/>
      <use xlink:href="#DejaVuSans-54" transform="translate(342.695312 0)"/>
      <use xlink:href="#DejaVuSans-20" transform="translate(403.779297 0)"/>
      <use xlink:href="#DejaVuSans-30" transform="translate(435.566406 0)"/>
      <use xlink:href="#DejaVuSans-20" transform="translate(499.189453 0)"/>
      <use xlink:href="#DejaVuSans-64" transform="translate(530.976562 0)"/>
      <use xlink:href="#DejaVuSans-61" transform="translate(594.453125 0)"/>
      <use xlink:href="#DejaVuSans-79" transform="translate(655.732422 0)"/>
      <use xlink:href="#DejaVuSans-73" transform="translate(714.912109 0)"/>
     </g>
    </g>
    <g id="line2d_30">
     <path d="M 172.013449 35.386453 
L 178.313449 35.386453 
L 184.613449 35.386453 
" style="fill: none; stroke: #443983; stroke-opacity: 0.6; stroke-width: 1.5; stroke-linecap: square"/>
    </g>
    <g id="text_20">
     <!-- Test TAT 1 days -->
     <g transform="translate(189.653449 37.591453) scale(0.063 -0.063)">
      <use xlink:href="#DejaVuSans-54"/>
      <use xlink:href="#DejaVuSans-65" transform="translate(44.083984 0)"/>
      <use xlink:href="#DejaVuSans-73" transform="translate(105.607422 0)"/>
      <use xlink:href="#DejaVuSans-74" transform="translate(157.707031 0)"/>
      <use xlink:href="#DejaVuSans-20" transform="translate(196.916016 0)"/>
      <use xlink:href="#DejaVuSans-54" transform="translate(228.703125 0)"/>
      <use xlink:href="#DejaVuSans-41" transform="translate(282.037109 0)"/>
      <use xlink:href="#DejaVuSans-54" transform="translate(342.695312 0)"/>
      <use xlink:href="#DejaVuSans-20" transform="translate(403.779297 0)"/>
      <use xlink:href="#DejaVuSans-31" transform="translate(435.566406 0)"/>
      <use xlink:href="#DejaVuSans-20" transform="translate(499.189453 0)"/>
      <use xlink:href="#DejaVuSans-64" transform="translate(530.976562 0)"/>
      <use xlink:href="#DejaVuSans-61" transform="translate(594.453125 0)"/>
      <use xlink:href="#DejaVuSans-79" transform="translate(655.732422 0)"/>
      <use xlink:href="#DejaVuSans-73" transform="translate(714.912109 0)"/>
     </g>
    </g>
    <g id="line2d_31">
     <path d="M 172.013449 44.633672 
L 178.313449 44.633672 
L 184.613449 44.633672 
" style="fill: none; stroke: #31688e; stroke-opacity: 0.6; stroke-width: 1.5; stroke-linecap: square"/>
    </g>
    <g id="text_21">
     <!-- Test TAT 2 days -->
     <g transform="translate(189.653449 46.838672) scale(0.063 -0.063)">
      <use xlink:href="#DejaVuSans-54"/>
      <use xlink:href="#DejaVuSans-65" transform="translate(44.083984 0)"/>
      <use xlink:href="#DejaVuSans-73" transform="translate(105.607422 0)"/>
      <use xlink:href="#DejaVuSans-74" transform="translate(157.707031 0)"/>
      <use xlink:href="#DejaVuSans-20" transform="translate(196.916016 0)"/>
      <use xlink:href="#DejaVuSans-54" transform="translate(228.703125 0)"/>
      <use xlink:href="#DejaVuSans-41" transform="translate(282.037109 0)"/>
      <use xlink:href="#DejaVuSans-54" transform="translate(342.695312 0)"/>
      <use xlink:href="#DejaVuSans-20" transform="translate(403.779297 0)"/>
      <use xlink:href="#DejaVuSans-32" transform="translate(435.566406 0)"/>
      <use xlink:href="#DejaVuSans-20" transform="translate(499.189453 0)"/>
      <use xlink:href="#DejaVuSans-64" transform="translate(530.976562 0)"/>
      <use xlink:href="#DejaVuSans-61" transform="translate(594.453125 0)"/>
      <use xlink:href="#DejaVuSans-79" transform="translate(655.732422 0)"/>
      <use xlink:href="#DejaVuSans-73" transform="translate(714.912109 0)"/>
     </g>
    </g>
    <g id="line2d_32">
     <path d="M 172.013449 53.880891 
L 178.313449 53.880891 
L 184.613449 53.880891 
" style="fill: none; stroke: #21918c; stroke-opacity: 0.6; stroke-width: 1.5; stroke-linecap: square"/>
    </g>
    <g id="text_22">
     <!-- Test TAT 3 days -->
     <g transform="translate(189.653449 56.085891) scale(0.063 -0.063)">
      <use xlink:href="#DejaVuSans-54"/>
      <use xlink:href="#DejaVuSans-65" transform="translate(44.083984 0)"/>
      <use xlink:href="#DejaVuSans-73" transform="translate(105.607422 0)"/>
      <use xlink:href="#DejaVuSans-74" transform="translate(157.707031 0)"/>
      <use xlink:href="#DejaVuSans-20" transform="translate(196.916016 0)"/>
      <use xlink:href="#DejaVuSans-54" transform="translate(228.703125 0)"/>
      <use xlink:href="#DejaVuSans-41" transform="translate(282.037109 0)"/>
      <use xlink:href="#DejaVuSans-54" transform="translate(342.695312 0)"/>
      <use xlink:href="#DejaVuSans-20" transform="translate(403.779297 0)"/>
      <use xlink:href="#DejaVuSans-33" transform="translate(435.566406 0)"/>
      <use xlink:href="#DejaVuSans-20" transform="translate(499.189453 0)"/>
      <use xlink:href="#DejaVuSans-64" transform="translate(530.976562 0)"/>
      <use xlink:href="#DejaVuSans-61" transform="translate(594.453125 0)"/>
      <use xlink:href="#DejaVuSans-79" transform="translate(655.732422 0)"/>
      <use xlink:href="#DejaVuSans-73" transform="translate(714.912109 0)"/>
     </g>
    </g>
    <g id="line2d_33">
     <path d="M 172.013449 63.128109 
L 178.313449 63.128109 
L 184.613449 63.128109 
" style="fill: none; stroke: #35b779; stroke-opacity: 0.6; stroke-width: 1.5; stroke-linecap: square"/>
    </g>
    <g id="text_23">
     <!-- Test TAT 4 days -->
     <g transform="translate(189.653449 65.333109) scale(0.063 -0.063)">
      <use xlink:href="#DejaVuSans-54"/>
      <use xlink:href="#DejaVuSans-65" transform="translate(44.083984 0)"/>
      <use xlink:href="#DejaVuSans-73" transform="translate(105.607422 0)"/>
      <use xlink:href="#DejaVuSans-74" transform="translate(157.707031 0)"/>
      <use xlink:href="#DejaVuSans-20" transform="translate(196.916016 0)"/>
      <use xlink:href="#DejaVuSans-54" transform="translate(228.703125 0)"/>
      <use xlink:href="#DejaVuSans-41" transform="translate(282.037109 0)"/>
      <use xlink:href="#DejaVuSans-54" transform="translate(342.695312 0)"/>
      <use xlink:href="#DejaVuSans-20" transform="translate(403.779297 0)"/>
      <use xlink:href="#DejaVuSans-34" transform="translate(435.566406 0)"/>
      <use xlink:href="#DejaVuSans-20" transform="translate(499.189453 0)"/>
      <use xlink:href="#DejaVuSans-64" transform="translate(530.976562 0)"/>
      <use xlink:href="#DejaVuSans-61" transform="translate(594.453125 0)"/>
      <use xlink:href="#DejaVuSans-79" transform="translate(655.732422 0)"/>
      <use xlink:href="#DejaVuSans-73" transform="translate(714.912109 0)"/>
     </g>
    </g>
    <g id="line2d_34">
     <path d="M 172.013449 72.375328 
L 178.313449 72.375328 
L 184.613449 72.375328 
" style="fill: none; stroke: #90d743; stroke-opacity: 0.6; stroke-width: 1.5; stroke-linecap: square"/>
    </g>
    <g id="text_24">
     <!-- Test TAT 5 days -->
     <g transform="translate(189.653449 74.580328) scale(0.063 -0.063)">
      <use xlink:href="#DejaVuSans-54"/>
      <use xlink:href="#DejaVuSans-65" transform="translate(44.083984 0)"/>
      <use xlink:href="#DejaVuSans-73" transform="translate(105.607422 0)"/>
      <use xlink:href="#DejaVuSans-74" transform="translate(157.707031 0)"/>
      <use xlink:href="#DejaVuSans-20" transform="translate(196.916016 0)"/>
      <use xlink:href="#DejaVuSans-54" transform="translate(228.703125 0)"/>
      <use xlink:href="#DejaVuSans-41" transform="translate(282.037109 0)"/>
      <use xlink:href="#DejaVuSans-54" transform="translate(342.695312 0)"/>
      <use xlink:href="#DejaVuSans-20" transform="translate(403.779297 0)"/>
      <use xlink:href="#DejaVuSans-35" transform="translate(435.566406 0)"/>
      <use xlink:href="#DejaVuSans-20" transform="translate(499.189453 0)"/>
      <use xlink:href="#DejaVuSans-64" transform="translate(530.976562 0)"/>
      <use xlink:href="#DejaVuSans-61" transform="translate(594.453125 0)"/>
      <use xlink:href="#DejaVuSans-79" transform="translate(655.732422 0)"/>
      <use xlink:href="#DejaVuSans-73" transform="translate(714.912109 0)"/>
     </g>
    </g>
   </g>
  </g>
 </g>
 <defs>
  <clipPath id="p66788c86e0">
   <rect x="39.62" y="8.64" width="204.023465" height="159.146772"/>
  </clipPath>
 </defs>
</svg>
